<svg xmlns="http://www.w3.org/2000/svg" width="101" height="221" fill="none" viewBox="0 0 101 221">
  <path fill="#478BF9" d="M.545 170.433c0-1.006.808-1.81 1.795-1.81.987 0 1.795.815 1.795 1.81 0 25.785 20.807 46.764 46.38 46.764 25.572 0 46.379-20.979 46.379-46.764 0-1.006.808-1.81 1.795-1.81.987 0 1.795.815 1.795 1.81 0 27.785-22.423 50.395-49.98 50.395S.524 198.218.524 170.433h.02Zm99.918-119.21c0 1.005-.808 1.81-1.795 1.81a1.809 1.809 0 0 1-1.795-1.81c0-25.785-20.807-46.765-46.38-46.765-25.573 0-46.38 20.98-46.38 46.765 0 1.005-.808 1.81-1.794 1.81a1.809 1.809 0 0 1-1.795-1.81C.524 23.437 22.947.828 50.504.828s49.98 22.61 49.98 50.395h-.021Z"/>
  <path fill="#478BF9" d="M.484 171.195V49.574c0-1.006.809-1.81 1.796-1.81.986 0 1.795.815 1.795 1.81v121.621c0 1.005-.809 1.81-1.795 1.81a1.809 1.809 0 0 1-1.796-1.81Zm96.37.275V49.849c0-1.006.808-1.81 1.795-1.81.987 0 1.795.815 1.795 1.81V171.47c0 1.006-.808 1.81-1.795 1.81a1.809 1.809 0 0 1-1.795-1.81Z"/>
</svg>
