<svg xmlns="http://www.w3.org/2000/svg" width="100" height="100" fill="none" viewBox="0 0 100 100">
  <path fill="#fff" d="M14.617 85.305c-19.49-19.49-19.49-51.198 0-70.688 19.49-19.49 51.199-19.49 70.688 0 19.49 19.49 19.49 51.199 0 70.688-19.49 19.49-51.198 19.49-70.688 0ZM82.95 16.974c-18.191-18.191-47.786-18.191-65.972 0-18.191 18.191-18.191 47.786 0 65.972 18.19 18.191 47.785 18.191 65.972 0 18.191-18.19 18.191-47.786 0-65.972Z"/>
  <path fill="#fff" d="M83.49 39.359a1.643 1.643 0 0 1-.399-.645c-1.73-5.119-4.555-9.655-8.394-13.494a34.664 34.664 0 0 0-13.494-8.394 1.667 1.667 0 0 1-1.133-1.578V3.1a1.664 1.664 0 0 1 2.066-1.616 49.873 49.873 0 0 1 23.16 13.133 49.928 49.928 0 0 1 13.128 23.159c.123.497.01 1.023-.303 1.431a1.66 1.66 0 0 1-1.313.64H84.66c-.455 0-.872-.185-1.18-.493l.01.005Zm-6.437-16.495a37.98 37.98 0 0 1 8.792 13.65h8.787a46.608 46.608 0 0 0-11.688-19.541A46.562 46.562 0 0 0 63.407 5.29v8.787a37.853 37.853 0 0 1 13.65 8.792l-.004-.005ZM14.616 85.305A49.914 49.914 0 0 1 1.482 62.147a1.673 1.673 0 0 1 .304-1.427 1.66 1.66 0 0 1 1.313-.64h12.147c.716 0 1.351.456 1.579 1.133 1.73 5.12 4.555 9.655 8.394 13.494a34.665 34.665 0 0 0 13.494 8.394 1.663 1.663 0 0 1 1.133 1.579v12.148c0 .511-.237.995-.64 1.313a1.67 1.67 0 0 1-1.432.303 49.928 49.928 0 0 1-23.158-13.13v-.009ZM5.284 63.408A46.608 46.608 0 0 0 16.972 82.95a46.609 46.609 0 0 0 19.542 11.688V85.85a37.905 37.905 0 0 1-13.65-8.787 37.981 37.981 0 0 1-8.793-13.65H5.284v-.005Zm55.282 34.591a1.664 1.664 0 0 1-.488-1.18V84.67c0-.715.455-1.35 1.133-1.578 5.119-1.73 9.655-4.555 13.494-8.394a34.642 34.642 0 0 0 8.394-13.494 1.663 1.663 0 0 1 1.578-1.133h12.148c.512 0 .995.237 1.313.64.318.403.427.934.303 1.427a49.978 49.978 0 0 1-13.133 23.158A49.872 49.872 0 0 1 62.149 98.43a1.673 1.673 0 0 1-1.426-.304c-.052-.047-.105-.09-.152-.137l-.005.01Zm2.844-12.153v8.787a46.608 46.608 0 0 0 19.542-11.688A46.658 46.658 0 0 0 94.64 63.403h-8.787c-1.92 5.148-4.873 9.73-8.792 13.65-3.916 3.916-8.504 6.873-13.65 8.793ZM1.92 39.359a1.667 1.667 0 0 1-.436-1.583 49.872 49.872 0 0 1 13.133-23.159A49.937 49.937 0 0 1 37.775 1.484a1.673 1.673 0 0 1 1.427.303c.403.317.64.8.64 1.313v12.148c0 .715-.455 1.35-1.133 1.578-5.119 1.73-9.655 4.555-13.494 8.394a34.663 34.663 0 0 0-8.394 13.494 1.663 1.663 0 0 1-1.579 1.133H3.095c-.446 0-.873-.175-1.18-.484l.004-.004Zm34.59-34.07a46.609 46.609 0 0 0-19.542 11.689A46.657 46.657 0 0 0 5.28 36.52h8.787c1.92-5.148 4.872-9.731 8.792-13.65a37.98 37.98 0 0 1 13.65-8.793V5.29Z"/>
  <path fill="#fff" d="M77.057 22.864c-14.94-14.94-39.255-14.944-54.194 0-14.945 14.945-14.94 39.255 0 54.194 14.94 14.94 39.25 14.945 54.194 0 14.944-14.944 14.94-39.254 0-54.194Z"/>
  <path fill="#110A1D" d="m63.783 63.639-27.527.182a2.1 2.1 0 0 0-2.086 2.114l.007.981a2.1 2.1 0 0 0 2.113 2.086l27.528-.183a2.1 2.1 0 0 0 2.086-2.114l-.007-.98a2.1 2.1 0 0 0-2.114-2.086ZM40.006 47.023c-.298 0-.602-.067-.877-.2l-2.147-1.038a1.984 1.984 0 0 1-.971-2.521l.985-2.455a1.977 1.977 0 0 1 2.816-.981l2.56 1.46a1.986 1.986 0 0 1 .65 2.844l-1.404 2.033c-.365.53-.972.853-1.617.853l.005.005Zm19.815-.133a1.986 1.986 0 0 1-1.626-.834l-1.388-1.958a1.981 1.981 0 0 1 .611-2.853l2.64-1.55c.299-.175.64-.27.986-.275a1.984 1.984 0 0 1 1.844 1.218l.995 2.384a1.991 1.991 0 0 1-.938 2.536l-2.247 1.123a2 2 0 0 1-.872.209h-.005Z"/>
  <path fill="#110A1D" d="M37.844 61.981a2.86 2.86 0 0 1-2.707-1.886l-4.593-12.641a4.876 4.876 0 0 1-2.715.436 4.85 4.85 0 0 1-4.223-4.773 4.855 4.855 0 0 1 4.815-4.882 4.848 4.848 0 0 1 4.877 4.816 4.79 4.79 0 0 1-.322 1.763 5.304 5.304 0 0 1-.436.867l8.735 4.228 6.683-9.683a4.891 4.891 0 0 1-2.052-1.654 4.822 4.822 0 0 1-.896-2.773 4.855 4.855 0 0 1 4.816-4.882 4.858 4.858 0 0 1 4.863 4.484 4.832 4.832 0 0 1-.863 3.142 4.89 4.89 0 0 1-1.237 1.223 4.394 4.394 0 0 1-.801.44l6.801 9.585 8.594-4.3a5.01 5.01 0 0 1-.384-.966 4.713 4.713 0 0 1-.176-1.266 4.844 4.844 0 1 1 9.688-.062 4.853 4.853 0 0 1-4.507 4.868l-.304.01c-.493 0-.976-.067-1.445-.209a4.714 4.714 0 0 1-.872-.365L64.87 59.896a2.86 2.86 0 0 1-2.683 1.92l-24.343.16v.005Z"/>
</svg>
