<svg xmlns="http://www.w3.org/2000/svg" width="100" height="100" fill="none" viewBox="0 0 100 100">
  <path fill="#478BF9" d="M99.11 50.065c0 27.323-22.232 49.556-49.555 49.556C22.233 99.62 0 77.388 0 50.065 0 22.743 22.233.51 49.555.51c27.323 0 49.556 22.233 49.556 49.555Zm-95.54 0c0 25.356 20.63 45.986 45.985 45.986 25.356 0 45.986-20.63 45.986-45.986C95.54 24.71 74.91 4.08 49.555 4.08 24.2 4.08 3.57 24.71 3.57 50.065Z"/>
  <path fill="#478BF9" d="M40.012 41.312a3.953 3.953 0 0 0 3.008 3.84l3.362.843v-8.65h-2.394a3.971 3.971 0 0 0-3.966 3.967h-.01ZM52.73 62.785h2.393a3.971 3.971 0 0 0 3.966-3.966 3.953 3.953 0 0 0-3.008-3.84l-3.362-.844v8.65h.01Z"/>
  <path fill="#478BF9" d="M49.556 9.742c-22.233 0-40.333 18.09-40.333 40.334 0 22.243 18.09 40.333 40.333 40.333S89.89 72.32 89.89 50.076 71.8 9.742 49.556 9.742Zm15.905 33.964H59.1V40.52a3.192 3.192 0 0 0-3.185-3.184H52.73v10.242l4.902 1.228a10.31 10.31 0 0 1 7.817 10.013c0 5.694-4.632 10.325-10.325 10.325H52.73V77.2h-6.36v-8.056h-3.185c-5.267 0-9.544-4.278-9.544-9.544v-3.186h6.36V59.6a3.192 3.192 0 0 0 3.184 3.185h3.185V52.543l-4.902-1.229a10.31 10.31 0 0 1-7.817-10.013c0-5.693 4.632-10.325 10.325-10.325h2.394V22.92h6.36v8.056h3.185c5.267 0 9.545 4.278 9.545 9.544v3.186Z"/>
</svg>
