<svg xmlns="http://www.w3.org/2000/svg" width="100" height="100" fill="none" viewBox="0 0 100 100">
  <path fill="#fff" d="M49.545 99.344C22.222 99.344 0 77.11 0 49.799 0 22.485 22.233.252 49.545.252S99.09 22.486 99.09 49.798c0 27.313-22.233 49.546-49.545 49.546Zm0-95.791c-25.501 0-46.246 20.744-46.246 46.245 0 25.502 20.745 46.246 46.246 46.246S95.791 75.3 95.791 49.8c0-25.502-20.745-46.246-46.246-46.246Z"/>
  <path fill="#fff" d="M81.873 14.444 66.535 29.783l3.017 3.017 15.339-15.338-3.018-3.018ZM29.076 67.243 13.738 82.582l3.018 3.017 15.338-15.338-3.018-3.018Zm40.941-.003L67 70.258l15.338 15.338 3.018-3.017L70.017 67.24Zm-53.25-53.26-3.017 3.017 15.33 15.331 3.018-3.018-15.33-15.33Zm44.874 37.15c1-.998 1-2.612 0-3.6l-2.123-2.114a2.54 2.54 0 0 0-3.602 0l-1.145 1.146-1.322-1.322c-.999-1-2.612-1-3.601 0l-1.145 1.155-1.322-1.332c-1-1-2.612-1-3.601 0l-7.026 7.026c-.052.052-.052.135 0 .197a2.425 2.425 0 0 0 3.414 0l4.528-4.528a1.25 1.25 0 0 1 1.77 0l.332.334a.15.15 0 0 1 0 .218l-3.778 3.78c-.052.052-.052.135 0 .197a2.425 2.425 0 0 0 3.414 0l4.34-4.34a1.25 1.25 0 0 1 1.77 0l.333.333c.052.052.052.135 0 .198l-3.643 3.643c-.052.052-.052.135 0 .198a2.425 2.425 0 0 0 3.414 0l4.194-4.195a1.25 1.25 0 0 1 1.77 0l.718.718a.735.735 0 0 1 0 1.03l-.114.115a.735.735 0 0 1-1.03 0l-.927-.926c-.052-.053-.135-.053-.198 0l-1.603 1.602c-.052.053-.052.136 0 .198l1.447 1.447c1 1 2.613 1 3.601 0l1.145-1.145-.01-.031Z"/>
  <path fill="#fff" d="M49.546 11.797c-20.984 0-37.991 17.007-37.991 37.991 0 20.984 17.007 37.992 37.991 37.992 20.984 0 37.992-17.008 37.992-37.992 0-20.984-17.008-37.991-37.992-37.991Zm1.551 11.73a26.21 26.21 0 0 1 15.925 6.6l-5.485 5.485a18.517 18.517 0 0 0-10.44-4.33v-7.755Zm-3.091 0v7.755a18.445 18.445 0 0 0-10.44 4.33l-5.486-5.486a26.214 26.214 0 0 1 15.926-6.599Zm-18.111 8.785 5.485 5.485a18.517 18.517 0 0 0-4.33 10.44h-7.754a26.215 26.215 0 0 1 6.599-15.925Zm-6.6 19.017h7.755a18.446 18.446 0 0 0 4.33 10.44l-5.485 5.485a26.214 26.214 0 0 1-6.6-15.925Zm24.71 24.71a26.214 26.214 0 0 1-15.925-6.6l5.486-5.485a18.517 18.517 0 0 0 10.44 4.33v7.755ZM33.58 49.778c0-8.816 7.151-15.967 15.967-15.967s15.967 7.15 15.967 15.967c0 8.816-7.15 15.967-15.967 15.967-8.816 0-15.967-7.151-15.967-15.967Zm17.518 26.26v-7.754a18.446 18.446 0 0 0 10.44-4.33l5.485 5.486a26.214 26.214 0 0 1-15.925 6.599Zm18.111-8.784-5.485-5.486a18.517 18.517 0 0 0 4.33-10.44h7.754a26.215 26.215 0 0 1-6.599 15.926Zm-1.155-19.017a18.445 18.445 0 0 0-4.33-10.44l5.485-5.485a26.215 26.215 0 0 1 6.6 15.925h-7.755Z"/>
</svg>
