<svg xmlns="http://www.w3.org/2000/svg" width="100" height="100" fill="none" viewBox="0 0 100 100">
  <path fill="#fff" d="M50.127 99.39C22.804 99.39.582 77.155.582 49.843.582 22.532 22.815.3 50.127.3s49.545 22.233 49.545 49.545S77.44 99.39 50.127 99.39Zm0-95.791c-25.501 0-46.245 20.744-46.245 46.245 0 25.501 20.744 46.246 46.245 46.246 25.501 0 46.246-20.745 46.246-46.246S75.628 3.6 50.127 3.6Z"/>
  <path fill="#fff" d="M66.198 18.9c-.25 0-.5-.053-.729-.167a34.317 34.317 0 0 0-15.342-3.58 34.317 34.317 0 0 0-15.343 3.58 1.647 1.647 0 0 1-1.894-.312l-8.514-8.515a1.642 1.642 0 0 1-.469-1.374c.063-.51.354-.957.791-1.217A49.456 49.456 0 0 1 50.139.289a49.557 49.557 0 0 1 25.438 7.026c.437.26.728.707.79 1.217.063.51-.114 1.01-.468 1.374l-8.514 8.515a1.68 1.68 0 0 1-1.176.479h-.01Zm-16.071-7.047a37.642 37.642 0 0 1 15.727 3.403l6.162-6.161a46.152 46.152 0 0 0-21.89-5.507 46.153 46.153 0 0 0-21.889 5.507l6.162 6.161a37.642 37.642 0 0 1 15.728-3.403Zm-.002 87.537a49.557 49.557 0 0 1-25.439-7.026 1.646 1.646 0 0 1-.79-1.218c-.063-.51.114-1.01.468-1.374l8.514-8.515c.5-.5 1.27-.624 1.894-.312a34.317 34.317 0 0 0 15.343 3.58 34.317 34.317 0 0 0 15.342-3.58 1.647 1.647 0 0 1 1.894.312l8.514 8.515c.365.364.531.864.469 1.374a1.65 1.65 0 0 1-.791 1.218 49.456 49.456 0 0 1-25.439 7.025h.02Zm-21.89-8.806a46.152 46.152 0 0 0 21.89 5.506c7.66 0 15.186-1.895 21.89-5.506l-6.163-6.162a37.642 37.642 0 0 1-15.727 3.403 37.642 37.642 0 0 1-15.727-3.403l-6.162 6.162Zm62.998-14.51c-.437 0-.854-.166-1.166-.479l-8.514-8.514a1.65 1.65 0 0 1-.312-1.894 34.318 34.318 0 0 0 3.58-15.343 34.317 34.317 0 0 0-3.58-15.342 1.644 1.644 0 0 1 .312-1.894l8.514-8.515c.364-.364.864-.53 1.374-.468.51.062.958.354 1.218.791a49.456 49.456 0 0 1 7.026 25.439 49.457 49.457 0 0 1-7.026 25.438c-.26.438-.708.729-1.218.791h-.208v-.01Zm-6.526-10.513 6.162 6.162a46.152 46.152 0 0 0 5.506-21.89c0-7.66-1.895-15.185-5.507-21.888l-6.161 6.161a37.64 37.64 0 0 1 3.403 15.728 37.64 37.64 0 0 1-3.403 15.727ZM9.023 76.074c-.072 0-.135 0-.197-.01a1.645 1.645 0 0 1-1.218-.791 49.456 49.456 0 0 1-7.026-25.44 49.456 49.456 0 0 1 7.026-25.438c.26-.437.708-.728 1.218-.79.51-.063 1.01.114 1.374.468l8.514 8.514c.5.5.624 1.27.312 1.894a34.317 34.317 0 0 0-3.58 15.343 34.316 34.316 0 0 0 3.58 15.342 1.645 1.645 0 0 1-.312 1.894L10.2 75.574c-.313.313-.729.49-1.166.49l-.01.01Zm.365-48.13a46.152 46.152 0 0 0-5.506 21.89c0 7.66 1.894 15.186 5.506 21.89l6.162-6.163a37.64 37.64 0 0 1-3.404-15.727 37.64 37.64 0 0 1 3.404-15.728l-6.162-6.162Z"/>
  <path fill="#fff" d="M50.128 11.853c-20.942 0-37.991 17.039-37.991 37.991 0 20.953 17.039 37.992 37.991 37.992 20.953 0 37.992-17.04 37.992-37.992 0-20.952-17.04-37.991-37.992-37.991Zm21.38 25.511a24.472 24.472 0 0 1 3.247 10.014.369.369 0 0 1-.177.353 31.823 31.823 0 0 0-7.255 6.09.341.341 0 0 1-.385.104l-4.694-1.53a.36.36 0 0 1-.25-.302 32.675 32.675 0 0 0-3.59-11.054.368.368 0 0 1 .03-.386l2.904-3.996a.395.395 0 0 1 .302-.157h.084c3.101.687 6.286.916 9.45.656a.377.377 0 0 1 .354.188l-.02.02ZM59.433 52.748a.378.378 0 0 1-.084.281 24.853 24.853 0 0 1-9.076 6.579.332.332 0 0 1-.281 0 25.093 25.093 0 0 1-9.076-6.579.378.378 0 0 1-.084-.28 30.145 30.145 0 0 1 3.477-10.7.347.347 0 0 1 .24-.178 27.175 27.175 0 0 1 5.589-.583c1.884 0 3.757.198 5.59.583a.353.353 0 0 1 .239.177 30.354 30.354 0 0 1 3.476 10.7h-.01Zm-.563-25.834s.125-.104.25-.104c.042 0 .094 0 .146.031 3.83 1.52 7.255 4.018 9.92 7.213a.345.345 0 0 1 .052.386.357.357 0 0 1-.334.218 28.664 28.664 0 0 1-6.994-.78.37.37 0 0 1-.23-.167 29.498 29.498 0 0 1-2.903-6.422.345.345 0 0 1 .104-.375h-.01Zm-14-1.249a25.256 25.256 0 0 1 10.524 0c.135.031.25.135.281.27a31.9 31.9 0 0 0 3.55 8.786.382.382 0 0 1-.021.406l-2.884 3.976a.361.361 0 0 1-.364.145 29.65 29.65 0 0 0-11.647 0 .36.36 0 0 1-.364-.145l-2.884-3.977a.381.381 0 0 1-.02-.405 31.903 31.903 0 0 0 3.549-8.785.373.373 0 0 1 .28-.27Zm-13.79 8.39c2.664-3.206 6.088-5.704 9.919-7.214a.35.35 0 0 1 .396.073c.051.052.166.177.103.375a29.272 29.272 0 0 1-2.904 6.422.37.37 0 0 1-.228.166c-2.28.542-4.632.812-6.995.781a.357.357 0 0 1-.333-.218.345.345 0 0 1 .052-.386h-.01Zm-2.322 3.31a.367.367 0 0 1 .323-.188h.031c3.175.25 6.36.031 9.451-.656a.352.352 0 0 1 .375.146l2.904 3.997a.37.37 0 0 1 .031.385 32.676 32.676 0 0 0-3.59 11.054.389.389 0 0 1-.25.302l-4.695 1.53a.379.379 0 0 1-.385-.104 31.826 31.826 0 0 0-7.255-6.09.389.389 0 0 1-.177-.353 24.422 24.422 0 0 1 3.248-10.013l-.01-.01Zm1.135 25.646a.365.365 0 0 1-.312.25c-.073 0-.24 0-.354-.167a24.695 24.695 0 0 1-3.79-11.668.356.356 0 0 1 .188-.343c.063-.031.23-.104.396.02a28.906 28.906 0 0 1 5.204 4.747.354.354 0 0 1 .083.27 28.558 28.558 0 0 1-1.426 6.902l.01-.01Zm10.284 9.503c-3.248-1.426-6.11-3.518-8.504-6.203a.376.376 0 0 1-.073-.385 31.85 31.85 0 0 0 2.29-9.191.358.358 0 0 1 .25-.312l4.642-1.51s.073-.02.114-.02a.35.35 0 0 1 .27.124 27.695 27.695 0 0 0 9.431 6.86.363.363 0 0 1 .219.333v4.881a.352.352 0 0 1-.219.334 31.834 31.834 0 0 0-8.046 5.027.349.349 0 0 1-.385.052l.01.01Zm16.372 1.03a.347.347 0 0 1-.27.292 25.032 25.032 0 0 1-12.282 0 .364.364 0 0 1-.271-.291.367.367 0 0 1 .146-.375 29.03 29.03 0 0 1 6.13-3.487.331.331 0 0 1 .281 0 29.555 29.555 0 0 1 6.131 3.487.382.382 0 0 1 .146.375h-.01Zm12.064-7.223a24.546 24.546 0 0 1-8.504 6.193.366.366 0 0 1-.385-.052 31.656 31.656 0 0 0-8.046-5.027.363.363 0 0 1-.218-.333V62.22c0-.145.083-.28.218-.333a27.592 27.592 0 0 0 9.43-6.86.35.35 0 0 1 .271-.124c.042 0 .073 0 .114.02l4.643 1.51c.135.042.24.166.25.312a31.937 31.937 0 0 0 2.29 9.191.355.355 0 0 1-.073.385h.01Zm2.436-3.216a.357.357 0 0 1-.354.167.359.359 0 0 1-.313-.25 29.597 29.597 0 0 1-1.426-6.901c0-.094.021-.198.084-.27a29.299 29.299 0 0 1 5.204-4.747.36.36 0 0 1 .208-.073c.084 0 .146.031.188.052a.34.34 0 0 1 .187.343 24.696 24.696 0 0 1-3.789 11.668l.01.01Z"/>
</svg>
