<svg xmlns="http://www.w3.org/2000/svg" width="100" height="101" fill="none" viewBox="0 0 100 101">
  <path fill="#478BF9" d="M.547 50.461C.547 23.14 22.78.906 50.102.906c27.323 0 49.556 22.233 49.556 49.555 0 27.323-22.233 49.556-49.556 49.556C22.78 100.017.547 77.784.547 50.461Zm95.54 0c0-25.355-20.63-45.985-45.985-45.985S4.117 25.106 4.117 50.46c0 25.356 20.63 45.986 45.985 45.986 25.356 0 45.986-20.63 45.986-45.986Z"/>
  <path fill="#478BF9" d="M98.143 49.264H76.441v4.278h21.702v-4.278Zm-74.723 0H1.72v4.278h21.7v-4.278Zm28.99 28.978h-4.277v21.702h4.278V78.242Zm0-75.379h-4.277v21.701h4.278V2.863Z"/>
  <path fill="#478BF9" d="M76.903 23.132c-14.843-14.843-38.918-14.843-53.771 0-14.843 14.843-14.843 38.918 0 53.771 14.843 14.843 38.918 14.843 53.771 0 14.843-14.843 14.843-38.918 0-53.771Zm-19.537 3.216a24.787 24.787 0 0 1 11.23 7.266l.584.655-.854.198a71.6 71.6 0 0 1-7.171 1.29l-.448.063-.125-.437a32.845 32.845 0 0 0-1.467-4.07c-.698-1.592-1.478-2.987-2.332-4.163l-.937-1.28 1.52.468v.01ZM39.994 48.831l.02-.541c.105-3.29.47-6.433 1.094-9.326l.094-.458.468.041a94.965 94.965 0 0 0 16.768-.052l.468-.041.105.458c.635 2.924.999 6.078 1.092 9.378v.541H39.994Zm20.11 2.415v.541c-.115 3.3-.48 6.453-1.114 9.378l-.104.458-.469-.041c-5.443-.51-11.293-.52-16.768-.053l-.468.042-.094-.458c-.625-2.894-.989-6.026-1.093-9.326l-.02-.541h20.129ZM50.048 25.443c3.029 0 6.11 3.84 8.035 10.034l.198.624-.656.052a92.775 92.775 0 0 1-15.175.042l-.656-.052.197-.635c1.926-6.214 5.018-10.076 8.057-10.076v.01Zm-18.652 8.285a24.809 24.809 0 0 1 11.334-7.37l1.53-.468-.947 1.291c-.853 1.166-1.644 2.57-2.331 4.153a33.601 33.601 0 0 0-1.489 4.143l-.124.427-.448-.053a70.813 70.813 0 0 1-7.244-1.259l-.864-.198.582-.666Zm-6.08 14.54a24.852 24.852 0 0 1 3.769-11.459l.208-.323.375.094a71.86 71.86 0 0 0 8.556 1.603l.562.073-.115.562c-.624 3.018-.978 6.214-1.072 9.503v.51H25.287l.041-.562h-.01Zm3.977 15.322-.208-.322a24.812 24.812 0 0 1-3.768-11.46l-.042-.562H37.58v.51c.104 3.289.469 6.495 1.083 9.503l.114.562-.562.073a72.233 72.233 0 0 0-8.556 1.603l-.374.093h.01ZM42.73 73.728a24.808 24.808 0 0 1-11.335-7.369l-.582-.666.863-.198c2.29-.52 4.726-.947 7.245-1.26l.448-.051.124.427a33.6 33.6 0 0 0 1.489 4.142c.697 1.593 1.478 2.987 2.331 4.164l.948 1.29-1.53-.468v-.01Zm7.318.906c-3.04 0-6.13-3.862-8.056-10.076l-.198-.635.655-.052a93.5 93.5 0 0 1 15.176.042l.656.052-.198.625c-1.936 6.182-5.017 10.034-8.035 10.034v.01Zm18.548-8.17a24.843 24.843 0 0 1-11.23 7.264l-1.52.469.936-1.28c.854-1.166 1.634-2.571 2.332-4.164a35.314 35.314 0 0 0 1.467-4.07l.125-.437.448.063a71.6 71.6 0 0 1 7.171 1.29l.854.208-.583.656Zm6.172-14.656a24.79 24.79 0 0 1-3.84 11.585l-.209.322-.374-.093c-2.634-.698-5.496-1.25-8.494-1.655l-.562-.073.115-.552c.624-3.018.988-6.235 1.082-9.576v-.51H74.8l-.041.562.01-.01Zm-12.26-2.978v-.51c-.104-3.341-.469-6.568-1.093-9.576l-.114-.552.562-.072c2.997-.406 5.85-.958 8.493-1.656l.375-.093.208.322a24.638 24.638 0 0 1 3.84 11.585l.042.562H62.518l-.01-.01Z"/>
</svg>
