<svg width="100" height="100" viewBox="0 0 100 100" fill="none" xmlns="http://www.w3.org/2000/svg">
<path d="M0 49.5555C0 22.2328 22.2329 0 49.5556 0C76.8782 0 99.1111 22.2328 99.1111 49.5555C99.1111 76.8782 76.8782 99.111 49.5556 99.111C22.2329 99.111 0 76.8782 0 49.5555ZM95.5409 49.5555C95.5409 24.2001 74.911 3.57015 49.5556 3.57015C24.2001 3.57015 3.57022 24.2001 3.57022 49.5555C3.57022 74.9109 24.2001 95.5408 49.5556 95.5408C74.911 95.5408 95.5409 74.9109 95.5409 49.5555Z" fill="#478BF9"/>
<path d="M97.5965 48.3584H75.8945V52.6363H97.5965V48.3584Z" fill="#478BF9"/>
<path d="M22.8739 48.3584H1.17188V52.6363H22.8739V48.3584Z" fill="#478BF9"/>
<path d="M51.8639 77.3362H47.5859V99.0382H51.8639V77.3362Z" fill="#478BF9"/>
<path d="M51.8639 1.95679H47.5859V23.6588H51.8639V1.95679Z" fill="#478BF9"/>
<path d="M75.239 23.3464C60.3963 8.50368 36.3211 8.50368 21.468 23.3464C6.62526 38.1891 6.62526 62.2643 21.468 77.1174C36.3107 91.9601 60.3859 91.9601 75.239 77.1174C90.0817 62.2747 90.0817 38.1995 75.239 23.3464ZM55.702 26.5627C60.032 27.9054 63.9144 30.4139 66.9329 33.8279L67.5158 34.4836L66.6623 34.6814C64.4036 35.2122 61.9888 35.6494 59.4907 35.9721L59.0432 36.0345L58.9183 35.5974C58.5019 34.1714 58.0127 32.7974 57.4506 31.5276C56.7533 29.935 55.9726 28.5403 55.1191 27.3641L54.1823 26.0839L55.702 26.5523V26.5627ZM38.33 49.0453L38.3508 48.504C38.4549 45.2149 38.8192 42.0715 39.4437 39.1779L39.5374 38.72L40.0057 38.7616C45.4807 39.2404 51.3304 39.2196 56.7741 38.7095L57.2424 38.6679L57.3466 39.1259C57.9815 42.0507 58.3458 45.2045 58.4395 48.504V49.0453H38.3404H38.33ZM58.4395 51.4601V52.0014C58.325 55.3009 57.9607 58.4547 57.3257 61.3795L57.2217 61.8375L56.7533 61.7959C51.3096 61.2859 45.4599 61.2755 39.985 61.7439L39.5166 61.7855L39.4229 61.3275C38.7983 58.4339 38.4341 55.3009 38.33 52.0014L38.3091 51.4601H58.4186H58.4395ZM48.3848 25.6571C51.4137 25.6571 54.4946 29.4979 56.4202 35.691L56.618 36.3156L55.9622 36.3676C53.4017 36.5862 50.7579 36.7007 48.1037 36.7007C45.6369 36.7007 43.1804 36.607 40.7864 36.4092L40.1306 36.3572L40.3284 35.7223C42.254 29.5083 45.3454 25.6467 48.3848 25.6467V25.6571ZM29.7324 33.9424C32.7718 30.4763 36.6854 27.9262 41.0675 26.5731L42.5976 26.1047L41.6503 27.3954C40.7968 28.5611 40.0058 29.9663 39.3188 31.5484C38.7671 32.7974 38.2675 34.1922 37.8304 35.691L37.7055 36.1178L37.2579 36.0658C34.739 35.7535 32.3034 35.3371 30.0135 34.8063L29.1496 34.6085L29.7324 33.9424ZM23.6538 48.4833C23.9453 44.4239 25.2463 40.4686 27.4217 37.0234L27.6299 36.7007L28.0046 36.7943C30.6692 37.4709 33.542 38.0122 36.5605 38.3973L37.1226 38.4702L37.0081 39.0322C36.3835 42.0507 36.0297 45.2462 35.936 48.5353V49.0453H23.6226L23.6642 48.4833H23.6538ZM27.6299 63.8048L27.4217 63.4821C25.2463 60.0472 23.9453 56.0815 23.6538 52.0222L23.6121 51.4601H35.9152V51.9701C36.0192 55.2593 36.3836 58.4651 36.9977 61.4732L37.1122 62.0353L36.5501 62.1081C33.542 62.4933 30.6588 63.0345 27.9942 63.7111L27.6195 63.8048H27.6299ZM41.0675 73.9428C36.6854 72.5896 32.7718 70.0396 29.7324 66.5735L29.1496 65.9073L30.0135 65.7095C32.3034 65.1891 34.739 64.7623 37.2579 64.4501L37.7055 64.398L37.8304 64.8248C38.2675 66.3237 38.7671 67.7184 39.3188 68.9675C40.0162 70.56 40.7968 71.9547 41.6503 73.1309L42.5976 74.4216L41.0675 73.9532V73.9428ZM48.3848 74.8483C45.3454 74.8483 42.254 70.9867 40.3284 64.7727L40.1306 64.1378L40.7864 64.0858C45.7513 63.6903 51.0389 63.7007 55.9622 64.1274L56.618 64.1794L56.4202 64.804C54.4842 70.9867 51.4033 74.8379 48.3848 74.8379V74.8483ZM66.9329 66.6775C63.9144 70.0916 60.0216 72.6 55.702 73.9428L54.1823 74.4112L55.1191 73.1309C55.9726 71.9651 56.7533 70.56 57.4506 68.9675C58.0023 67.6872 58.5019 66.3236 58.9183 64.8976L59.0432 64.4605L59.4907 64.5229C61.9888 64.8456 64.4036 65.2828 66.6623 65.8136L67.5158 66.0218L66.9329 66.6775ZM73.1053 52.0222C72.8138 56.1232 71.4919 60.1305 69.2645 63.607L69.0563 63.9296L68.6816 63.836C66.0482 63.1386 63.1858 62.5869 60.1881 62.181L59.6261 62.1081L59.7405 61.5565C60.3651 58.538 60.7293 55.3217 60.823 51.9806V51.4705H73.1365L73.0948 52.0326L73.1053 52.0222ZM60.8439 49.0453V48.5353C60.7398 45.1941 60.3755 41.9674 59.751 38.9593L59.6365 38.4077L60.1985 38.3349C63.1962 37.9289 66.0482 37.3772 68.6919 36.6798L69.0667 36.5862L69.2748 36.9089C71.5023 40.3854 72.8346 44.3823 73.1156 48.4937L73.1573 49.0557H60.8543L60.8439 49.0453Z" fill="#478BF9"/>
</svg>
